<svg width="23" height="19" viewBox="0 0 23 19" fill="none" xmlns="http://www.w3.org/2000/svg">
<path d="M0.0850816 0.403097C0.276595 0.03604 0.729576 -0.106173 1.09679 0.0851577C4.85668 2.04423 6.87562 3.72657 7.39013 6.25174C7.58825 7.22433 7.79075 8.88503 7.79066 10.567C9.49607 10.6224 11.7023 11.0349 14.1571 12.1757C19.1634 14.5022 21.386 16.4965 21.8904 17.1069C22.1542 17.4262 22.1087 17.8991 21.7893 18.163C21.4701 18.4266 20.9979 18.382 20.7341 18.063C20.4304 17.6954 18.432 15.8165 13.525 13.5361C11.2511 12.4793 9.23928 12.1138 7.73039 12.0662C7.66563 12.8147 7.54417 13.5477 7.33579 14.1916C7.07166 15.0076 6.62799 15.8075 5.85775 16.2278C5.2564 16.5558 4.65827 16.3583 4.28663 16.1461C3.99933 15.9821 3.34411 15.5849 3.31253 14.7148C3.29418 14.2068 3.28736 13.5839 3.37046 13.002C3.44991 12.4459 3.63071 11.7775 4.10627 11.3173C4.27744 11.1518 4.50202 11.0403 4.697 10.9625C4.90965 10.8777 5.16342 10.804 5.4475 10.7436C5.69782 10.6903 5.98029 10.648 6.2912 10.6162C6.29542 9.03004 6.1022 7.44624 5.9201 6.55203C5.5569 4.76901 4.14957 3.36688 0.403021 1.4148C0.0359639 1.22329 -0.106249 0.770311 0.0850816 0.403097ZM6.21734 12.1342C6.04893 12.1566 5.89542 12.1813 5.75913 12.2103C5.53689 12.2576 5.36877 12.3095 5.25332 12.3555C5.18709 12.3819 5.15118 12.4014 5.13685 12.4095L5.10858 12.4409C5.01381 12.5633 4.91396 12.8042 4.85539 13.2142C4.79214 13.6571 4.79397 14.1689 4.81173 14.6606C4.81215 14.6719 4.81298 14.6787 4.81359 14.6816C4.81391 14.683 4.814 14.6842 4.81414 14.6846L4.8151 14.6848L4.81496 14.6857C4.81515 14.6861 4.816 14.687 4.81661 14.6879C4.81799 14.69 4.82093 14.6936 4.82583 14.6991C4.85352 14.7304 4.9083 14.7737 5.03072 14.8436C5.09309 14.8792 5.13628 14.8916 5.15913 14.8969C5.42622 14.7407 5.69735 14.3838 5.90913 13.7294C6.05688 13.2729 6.1563 12.729 6.21734 12.1342Z" fill="white"/>
</svg>
