<svg width="29" height="16" viewBox="0 0 29 16" fill="none" xmlns="http://www.w3.org/2000/svg">
<path d="M0.0305448 14.4348C0.0925332 14.2238 0.261972 13.8944 0.46895 13.5376C0.69217 13.1528 1.00288 12.6629 1.39843 12.1047C2.18968 10.9879 3.32984 9.58235 4.80011 8.1853C6.12756 6.92404 7.82944 6.09112 9.44127 5.51825C11.058 4.94366 12.637 4.61332 13.7386 4.38682C15.5826 4.00766 17.401 4.30028 18.8988 4.85417C20.9134 3.02543 23.8928 1.18808 27.7797 0.0312205C28.1765 -0.0867592 28.5941 0.13935 28.7124 0.536014C28.8306 0.933017 28.6043 1.35149 28.2073 1.46965C24.8401 2.47187 22.2241 4.00461 20.3904 5.54234C20.6585 5.69315 20.9065 5.84871 21.1306 6.00591C21.5038 6.26772 21.6587 6.65496 21.716 6.98992C21.7721 7.31747 21.7497 7.66589 21.7053 7.9801C21.6182 8.5962 21.4047 9.33063 21.272 9.86909C20.9064 11.3514 19.9486 12.5779 19.0461 13.4578C18.1379 14.3433 17.2192 14.942 16.8191 15.1643C16.3309 15.4354 15.5668 15.5682 15.0073 15.1129C14.2394 14.4877 14.1173 13.5283 14.2302 12.66C14.3446 11.7799 14.7171 10.8042 15.1901 9.86809C15.8778 8.50729 16.8368 7.11576 17.743 6.05275C16.6087 5.72559 15.32 5.59233 14.0403 5.85546C12.94 6.08169 11.4531 6.3958 9.94433 6.932C8.43068 7.46994 6.94737 8.21477 5.83338 9.27328C4.44417 10.5933 3.36668 11.9218 2.62269 12.9719C2.25085 13.4967 1.96387 13.9485 1.7654 14.2906C1.66613 14.4618 1.59149 14.6022 1.53918 14.7077C1.48077 14.8255 1.4667 14.8679 1.46983 14.8573C1.35317 15.2547 0.936405 15.4824 0.538959 15.3657C0.141512 15.249 -0.0861125 14.8323 0.0305448 14.4348ZM19.2383 6.63108C18.3314 7.61668 17.2599 9.09685 16.5286 10.5439C16.0897 11.4124 15.8004 12.2146 15.7174 12.8533C15.6399 13.4499 15.7561 13.7515 15.9124 13.9089C15.954 13.9061 16.019 13.8922 16.0908 13.8524C16.388 13.6872 17.1962 13.1656 17.9988 12.383C18.8073 11.5947 19.5451 10.6049 19.8152 9.50969C19.9731 8.86935 20.1471 8.28569 20.2199 7.77006C20.2555 7.51855 20.2561 7.34757 20.2382 7.24314C20.2355 7.22697 20.2312 7.21483 20.2288 7.20578C19.94 7.0064 19.6061 6.81206 19.2383 6.63108Z" fill="white"/>
</svg>
